<?xml version="1.0" encoding="UTF-8"?>
<svg id="Layer_1" xmlns="http://www.w3.org/2000/svg" version="1.1" viewBox="0 0 1080 1856.1">
  <!-- Generator: Adobe Illustrator 30.6.0, SVG Export Plug-In . SVG Version: 2.1.4 Build 109)  -->
  <defs>
    <style>
      .st0 {
        fill: #d4d3b5;
      }

      .st1 {
        fill: #dadaba;
      }

      .st2 {
        fill: none;
        stroke: #d8d7b8;
        stroke-miterlimit: 10;
        stroke-width: 3px;
      }

      .st3 {
        fill: #eee7d4;
      }

      .st4 {
        fill: #343917;
      }

      .st5 {
        fill: #d8d7b8;
      }
    </style>
  </defs>
  <path class="st1" d="M1080,304.1v5.3s-4.3,2.6-4.3,2.6c-11.1,14.1-20.9,27.6-26.9,45.3l13.1-8.9,14.8-21c.4-.6,3.5-2.2,3.3-1.8v4.1s-12.3,16.1-12.3,16.1l12.3-1.2v2.7c-12.9,1.4-26.2,6.8-33.9,19.8,12,1.9,23.1.4,33.9-.8v4.1s-27.6,1.4-27.6,1.4l5.2,8.2c7.1,3.4,15.1,4.8,22.4,3.9v4.1s-18.7-2.8-18.7-2.8l-1.1,1.4.3,18.7c5.8-3.1,13.2-5.2,19.5-5.1v2.7c-6,.4-16.4,1.6-20.3,7.4l-10.4,15.7c-5.7,8.6-.7,20.5,5.4,28.4,5.6,7.3,15.4,11.3,25.4,12v2.7s-7.1,0-7.1,0c-.3,13.3-8.6,24-19.6,29.2-12,5.7-24.8,4.8-37.1-2.6.4,17-11,30.3-26.3,33.2-16.1,3.1-31.4-5.1-37.5-18.8s-1.4-30.6,13.2-40.3c-20.3-3.2-33.6-21-30.4-39.8,3.3-19.3,21.4-32.7,43-29-1.8-14.7,4.3-25.6,13.4-35.3-13.8-8.6-22.4-20.1-25.3-34,12.2-2.5,23.4-1.9,35.6,1.4-6-19.3-5.6-38.1,3.3-55.7,25.4,16.6,45,34.7,45.4,65.5,9.2-14.2,17.3-27.9,29.4-38.8ZM1016.1,304.9c16,16.6,17.5,37.9,24.4,58.8,12.3-21.3,5.6-46.2-10.7-62.7-7-7.1-14.2-12.8-23.4-19.2-6,16.6-8.6,36.4.6,52.6,9.3,6.6,19.2,14.3,26.8,25.1.9-21.3-11.7-36.8-17.7-54.5ZM1026.8,356.6c-12.1-19.4-35.5-26.2-56.5-22.4,4.3,13.8,13.2,23.5,25,29.8,9.5-7,20.1-8.6,31.5-7.4ZM1014,359.9c-22.4,3.3-35.9,23.1-32,43.1,3.7,19.2,23.2,32.9,43.8,29.7s34.7-21.9,31.5-42.5c-2.9-18.9-21.6-33.6-43.3-30.4ZM1059.2,384.7c-.4.2.9-.5,1.3-.7l-1.3.7ZM1001.6,432.3c-12.5-6.1-19.6-15.9-23-28-14.3-3.2-28.6,3-35.7,14.4-7,11.3-6.5,25.9,2.5,36.4,9.3,10.7,24.4,14.6,37.5,9.1,12.2-5.1,21.2-17.9,18.6-31.9ZM1001.8,470.3c-1.4-13.7,5.6-26.1,17.2-33.5l-13.6-2.6c.3,14.3-6.3,25-18.3,31.8l14.7,4.3ZM1069.1,467.4c-15.8-5.3-24.2-17.3-25.6-31.8-20.4-3.4-37.7,11.3-38.6,30-1,18.6,15.5,34.8,35.6,32.9,16.6-1.6,29.5-14.9,28.6-31.1ZM1001.5,476.3c-9.8-12-28.2-8.7-38.3-.4-11,9.2-13.3,24.6-5.4,36.8s22.8,16.8,36.6,11.2c11.8-4.7,22.4-18.9,16.5-32.5-1.8-4.1-6.1-11.2-9.4-15.2Z"/>
  <path class="st5" d="M821.8,1856.1h-4.2c-1.5-25.4-17.6-47.5-43.5-56.2-19.4,13.3-40.8,15.6-63.2,11.9-20.3-3.4-38.3-10.4-51.2-27.4-45.3-1.4-71.2,30.4-73.7,71.7h-4.2c1.4-20.8,8.8-41.8,24.3-56.7l12.7-10.4,5-1.5c5.4-1.3,11.6-4.6,16.9-5.3l15.7-2-6.6-7.9-1-3.8c-.2-.7-1.5-1.3-1.7-1.4l-4.6-17.7-2-14.5c0-.6,1.3-3.4,1.6-2.8h1.3s12.8,5.2,12.8,5.2l22,11.5,19.7,15.1c3.5-8.5,5.5-16.4,10.3-22.4l11.7-14.4,4-2.2c10.8,13,13.3,30.1,12,48.9,22.8-12.2,48.7-20.2,75.1-18.6-6.3,18.7-18.8,30.9-32.6,42.4,26.7,11.4,41.2,33.4,43.4,58.8ZM714.1,1798.2c4.1-7.5,10.6-14.1,16.3-20.7,5.4-15.9,1.2-34.2-7.1-47.8-12.1,11.1-19.2,23.7-21.9,38.6,7,8.9,11.8,18.5,12.7,29.9ZM709.8,1807.4c2.5-15.2-3.3-27-12.1-37.6-14.3-15.2-32.3-26.1-53.2-33.5.9,15.3,6,28.3,13.9,40.5,11.5,17,29.8,28.7,51.5,30.5ZM756.8,1804.9c21.9-9.2,39.5-25.1,49.2-46.8-24,.2-45.4,6.9-65.2,17.1-12.5,7.7-21.9,18.2-26.4,32.9,14,3.9,28,2.2,42.4-3.2Z"/>
  <path class="st5" d="M1080,5.2c-1.2,0-4.3,1.8-5.3,2.9l-25.2,27.4c-2.9,3.2-6.2,9.1-6.3,12.9l-4.4,1.3-20,27.9c-11.6,21.5-14.1,45.5-8.8,69.3,1.7,7.6,5.3,14.4,4.7,22.8-11.6-22.4-11.8-45.6-8.8-70.9-9.7,14.8-18.7,28.6-25.9,43.9-6.6,14-6.4,29.9-5.3,45,.6,7.8,3.5,14.7,1.4,22.7-6.3-17.7-5.7-34.6-4.3-53-15.3,22.6-22.7,48.3-38.8,72,10.7-32.1,29-59.9,44.2-91.2-16.6,8.5-29.2,20.5-47.4,23.3,9.6-7.1,19.7-10.2,29.1-16.2,9.1-5.7,20.4-11.5,26-20.6l23.8-38.2c-15.3,6.9-29.6,18.1-47.9,19,19.8-9.8,40-14.8,54.5-30.2l17.5-24-5.8,1.4c-1.6,0-2.8-1.3-3.1-3.3.6-.3,2.2-1.2,2.7-2l2.7-4.5-.4-2.7c4.4.6,12.7-1.2,15.3-4.2,11.7-13.3,22.7-25.3,35.7-36.1v5.2Z"/>
  <path class="st0" d="M1080,1577.6v4.1c-9.3.4-18.6,2.3-28.2,5.4-2.5,21.7-12.9,40.1-26.9,56.6,7.2,4.1,12.8,9,17.5,15.4,12.4-4.3,25.1-6,37.7-7.2v4.1c-12-.4-24.2,1.3-36.1,6.3,4.7,11.1,5.1,20.5,1.5,32.6,12,.6,23.6-.5,34.6-3.7v4.1c-11.8,1.9-23.5,2.9-36.1,2.8-9.4,17.1-29,25.8-47.9,20.6-18.3-5-31.2-21.3-30.6-40.2.6-17.7,13.8-33.3,33-37.7,8-22.4,23.3-42.2,45.2-53.3s24.3-7.4,36.4-9.8ZM1022,1642.2c12.5-15.3,23.5-32.8,26.2-53.4-22.1,10.3-37.6,29.6-46.2,50.8l20,2.6ZM1041.6,1694c5.8-14.1,2.6-28.9-7.3-39.1-9.2-9.5-23.5-13.8-37.4-10-17.6,4.8-29,20.4-27.8,37.4,1.2,16.8,14,31,31.2,33.9,16.8,2.9,34.6-5.6,41.3-22.1Z"/>
  <path class="st5" d="M1037.9,1856h-4.2s3.1-8,3.1-8c9.1-21,2.2-45-16-58.6-18.3-13.7-43.9-13.6-62.4,0-18.5,13.8-24.7,37.8-15.6,59.4l2.4,7.2h-4.2s-2.3-7.1-2.3-7.1c-8.9-22.1-2.5-46.8,16.1-61.4,18.3-14.3,44.4-15.8,64.4-3.5,19.6,12.1,29.4,35.4,23.4,58.1l-4.8,13.9Z"/>
  <path class="st0" d="M1036.7,1403.9h12.3c0,0,3,.5,3,.5l2.8.3,3.1.3,14.9,3.9,7.3,2.3v2.7c-27.7-11.6-60.5-11.1-85.7,5.1l-6.1,3.9c-6.7,4.3-12.1,9.4-16.9,15.2-11.9,14.5-17.9,33.5-12.9,52.4,8.1,31,40.4,47.8,74.1,46.5,2.1,0,6.8,1.5,8.1,2.5-23.4,1.5-47.1-3.1-65.4-18.1l-8.1-8-3.6-4c-3.5-6.2-6.7-14.1-8.5-21l-.8-4.2c-2.4-31.1,14.7-54.1,41.7-69.9l2.9-1.4,20.5-6.9,4.7-.9,5.4-.7,7.2-.7Z"/>
  <path class="st0" d="M1080,1420.7v2.7l-2.7-.2c-5.5-3.7-12.3-6.9-21.2-6.5,4.9,4.5,10.2,7.6,8.3,13.3l-.8,2.4c-.2.6.4,1.9.9,1.8l-16.1,19.6c-2.6,3.2-5,6.6-7,10.9l28.5-5.5c.5,0,2.5-1.8,2.5-1.8s1.3,1,3,2.3l-19.6,4.9-13.9,3.7c5.2,4.1,9.2,6,14.2,7.2,6.7,4.9,15.5,9.3,23.8,11.5v4.1s-35.8-18.3-35.8-18.3c-1.3-.7-5.2.6-4.8,1.9l11.6,34.9c1.9,5.6,13,3.5,16.7,1.1l12.3-7.5v2.7s-12.2,7.1-12.2,7.1c-5.4,3.2-12.4,3.2-17-.6-1,11.2-21.3,13.5-33.6,8l-3.1-5.6c-8.1,3.6-15.8.9-21.2-4.1l-1.4-1,1.6-1.5,1,1.3c4.9,3.3,13.6,7.3,20.1,3.2l17.6-39.8-17.3,7.9-24.6,14.4c-2.7,1.6-7.5,1.3-9.5,0,5.1-1,11-3.2,15.9-6l33-19.2-19.2-2.1-1.1-2.5,22.5.4-24.2-24.2c-2-2-6.7-4.9-9.5-4.7l-.9-2.4,3.6-.2c.9,0,1.3-2.7,1.8-3.3l3.4-3.5-1.7,7.9,29.2,27.8-4.8-35.6c-.3-1.9-4.4-5-6.2-4.5l-16.5,4.5c5.9-6,15.5-8.3,23.5-4.5,6.2-6.5,15.1-6.2,22.6-5.1h2.1c.5.1,1.3-1.8.8-2l-2.9-1.1c-10.4-1.6-21.6-.7-32,1.7l-.4-2c20.3-5.8,41.6-3.4,60.5,6.2ZM1060.8,1432.9c1.3-1.8,2-5.8,1.4-7.1-2.2-4.8-14.9-7.6-24.3-5.6-4.9,1-7.2,4.8-6.5,9.3l4.5,29.4c.2,1.1,1.9,3.2,2.7,2.9s2.4-1.3,2.8-2l19.4-27ZM1033.7,1472.6c2.5.3,7-.6,7.1-2.3s-.7-5.8-2.2-6.8-6.4.6-7.2,2.3l-1.8,4.2c-.4.9,3.1,2.5,4.1,2.6ZM1047.9,1511.1l-12.6-38.6-16.9,37.7c-.8,1.7-1.1,5.4-.6,6.8,2.5,7,33.7,4.8,30.2-5.9Z"/>
  <path class="st0" d="M1080,1512.7v2.7s-11.4,6.1-11.4,6.1c-9.8,5.4-21.5,8.1-33.4,8.9-24.3,1.7-48.2-5.9-62.6-25-12.3-16.4-11.4-37.4-2.3-55.2l3.9-7.6c.7-1.4,3-2.3,6.4-3.9-7.1,11.3-14.7,22-14.6,36s2.5,22.3,10.3,31.5c24,28.5,72.6,27.9,103.9,6.5Z"/>
  <path class="st0" d="M1080,1523.5v2.7c-10.7,5.7-24.3,10.6-35.9,12.4l-2.3-2c11.5-1.9,21.8-6.3,32.1-10.7l6.1-2.4Z"/>
  <path class="st0" d="M600,1856.1h-4.2c1.3-8.3,0-18.3,8-25.7l-3.8,25.7Z"/>
  <path class="st1" d="M1029,40.3l.4,2.7-43.8-5c-64.5-11.4-113.5,21.8-153.9,68.9,44.3,11.4,88.5,10.1,128.2-9l28.1-23.5c.8-.7,3.9-1.6,4.2-1.2-.8,2-2.8,4.7-5.1,6.2-60.5,41-75,105.8-67,174.8,57.8-32.7,109.1-67.7,117.6-135.7,1.9-14.9,1.3-29.2,1.4-44.3l-.4-24.5,4.4-1.3-.6,25.8c-.4,15.3.3,30-1.6,45.1-4.3,34.6-20.7,64.6-47.1,88.5-22.6,20.2-47.6,36.2-76.2,51.3-4-26.6-3.8-52.6.5-78.7,4.7-27.4,15.7-51.2,33.8-74.6-27.7,9.3-53.4,13.1-81.2,11.1-15.2-1.5-29.7-3.8-44.7-8.2,17.1-21.3,35.2-38.3,57-52.3,30-20.2,64.7-26.5,101.1-21.8l44.9,5.8Z"/>
  <path class="st5" d="M117.3,457l5.5.6c6.5.7,12.8.5,18.4,2.1s10.9,4.2,14.9,7.6l5.9,5,3.7,4.5c9.2,13.4,11.9,30.2,5.6,45.1s-26.9,30.2-47.7,29.1c-19.3-1-36.9-13.7-43-32.3-8.3-25.4,6.1-51.2,32.1-59.3,1.5-1.1,3.3-2.5,4.5-2.4ZM133.3,547.3c25-3.7,40.3-25.4,37.7-47.8-2.5-21.7-21.4-39.4-45.4-38.7-26.4.7-45.9,22.6-43.8,46.8,2.1,24.4,24.5,43.7,51.5,39.8Z"/>
  <path class="st5" d="M129.5,576.4l1.4,1,6.6,10.9c1,1.7,1.7,5.8,1.7,7.7v10.9c0,5.5-3.7,11.3-6.5,15.9-11.2,14.5-30.1,18.7-47.4,11.6l-4.3-.3c-1-5.6-15-10.6-16.6-30l-.2-4.1,1.6-10.3c.1-.8.8-2.3,1.3-3.2,5.1-9.8,16-19.2,26.7-20.9,14.3-2.2,26.6,1.4,35.8,10.6ZM99.7,634.6c19.5,1.2,34.5-13.1,36.4-29.7,1.9-17.2-10.1-33.4-28.6-36.3-20-3.1-37.7,10.7-39.6,29.4-1.8,17.7,11.2,35.3,31.8,36.6Z"/>
  <path class="st5" d="M200.4,1629c-3.1,29.6-9.6,58.5-25.8,85.3l31.3-3.4,7.1-.9c.9,1.7,4.5,2.3,6.8,2.7l35.1,5.6,1.2,1.7c.2.3-.6,1.8-1,2.4-14.8,17.5-31.6,32.2-50,45.2l-8.5,5.2-22.1,10.8-5.7,1.8-12,2.9c-1.1.3-3.6,2.5-3.1,3-1.2-.6-2.4-1.7-3.3-1.4l-4.2,1.3-13.5.5-11.4,1.5-14.8-2.2c-3.3-.5-7.8.1-10.5.9.2-.8-.9-2.3-2-2.4l-3.6-.2-2.6-.2c-5.7-2.4-12.7-2.4-18.5.2l-2.4,1.1c-.4.2-.5,1.8-.4,2.1l-2.2-1.5c-.5-.3-1.6.7-2,1-6.4.4-12.3,5.5-14.6,10.9-4.4,2.5-8.4,7-12.4,10.8l-4.2,4-4.4,3.8-5.5,4.4-10.9,8.5-8.8,5.1.4-3.6c17.5-13.6,36.4-27.4,50.3-45.3l9.5-59.8c7.7-35.5,26.8-65.6,57.2-86.8s34.9-21.5,54.6-28.6l9-3.2,18.1-5.1-.5,21.7ZM126,1711.5c18.6-6.6,32.6-17,50.2-15.5-20.5,8.1-41.3,11.5-57,25.4-12.3,10.9-21.6,24.3-32.5,37.6,18.1-7,33.3-13.7,51.1-15.9-.7,1.8-1.6,3.3-2.2,3.4-28.4,6-58.3,15.9-73.8,41.2,92-24.8,133.8-86.8,136-176.6-64.9,20.3-118.1,52.9-132.2,119.6l-7.7,54.6,32.2-36.5c11.2-24.3,11-48.5,7.2-75.8,10.7,20.8,4,43.3,1.9,64.6l32.4-39.7c7.4-19.5,6.8-38.5,8.9-59.3,4.8,17.2,0,33-2.4,50.1,16.8-17.9,27.3-39.1,44.3-57.1-11.7,23.9-29.1,42.7-44.3,63.2l-12.2,16.5ZM198,1764.8c-32.2-4.2-53-17.9-79.9,4.2,11.1,3,22.6,4.4,30.6,11.9-12.6-1.3-25-13.1-36.4-8.1l-28,12.2,18.6,2.8c60.1,9.1,111.9-22.2,148.6-66.6-26.9-6.1-53.2-8.1-79.1-2.4-9.8,12.7-20.8,24.8-33.2,35.8l27.7-9c15.2-7.5,25.3-20.2,40.4-29.1-6.4,11.2-18.7,14.9-27.1,25.5l48-14.4.3,2.6-73.4,23.1c14.2,4.5,29.4,3.5,43.2,11.6Z"/>
  <path class="st5" d="M893.8,1695.5h12.6c2,0,6.4.9,8.1,1.7l11.7,6c15.1,10,22.9,26.8,19.7,44.6-4.2,23-25.7,38.8-49.8,38.1-24.2-.5-42.8-17.3-45.9-39.9v-3.2c-.1-6.1,2-16,3.9-21.2.3-.8,1.5-2.6,1.9-3.2l6.6-8.8c8.8-7.8,19.5-14,31.1-14ZM943,1743.2c1.9-26.4-20.7-45.9-46.9-44.5-18.1,1-32.8,11.9-39,26.5s-3.2,33.5,9.7,45.6,31.5,15.1,48.8,8.1c13.7-5.5,26-18.2,27.3-35.8Z"/>
  <path class="st5" d="M915.8,1559.1l2.9.2h5.4s9,2.7,9,2.7c5.8,1.8,13.3,7.5,17.1,12,12,14.4,12.5,34.9,1.4,49.4-11.7,15.3-32.1,20.6-50.9,13l-4.8-1.2c-7.8-6.5-15.6-14.8-18.9-23.9-.4-1.2-1-3.3-1-4.3l-.5-9.2c.8-21.1,18.6-37.5,40.4-38.7ZM911.5,1563.3c-22.1,3.4-35.3,23.6-31.7,42.9,3.6,19.9,23.5,32.9,43.8,29.8,21.1-3.2,35.5-22.1,31.8-42.6-3.4-19.1-21.9-33.5-43.9-30.1Z"/>
  <path class="st1" d="M350.1,1769l1.6-.8,1.3,3.6,8.4,3.1-2.1,5.1,1.8,3.9c.4.8-.5,2.3-.8,3.1l-5.8-.4v-2.1s2.4-.9,2.4-.9l-.5-7.7-9.7-4.7c-1.3-.6-5,.2-6.1.9l2.4,7.7-2.3-.9-4.1-6.8c2.5-4.1,9-7,13.5-3.2Z"/>
  <path class="st0" d="M317,1775.7l-2.1,7.6c-.9,2.2-.8,5.6,0,7.9l-.4,4.2c-.3,2.4.5,5.9,1.7,8v3.1c.1,0-4.7-6-4.7-6l-.3-3c-.7-6.6-.3-17.6,6-21.7Z"/>
  <path class="st0" d="M343,1779.8l11.5,4.7v2.1c-3.8-.4-10.3-2.5-14-2.4l-1.2-3.8,1.5-1.5,2.3.9Z"/>
  <path class="st0" d="M804.9,1853.2c-6.7-14.9-10.9-29.8-27.2-35.8l-1.7-1.7c-.4-.4-.5-2.1,0-2.1l3.6.2c13.9,7.7,27.3,22,25.2,39.4Z"/>
  <path class="st0" d="M977.8,1823.5l-10.7,2.3c-2,.4-7,.6-8.1-1-2.5-3.7-5.9-15-5-17.4.8-2.2,5-4.2,7.2-6.1s4.7-4.7,6.6-5.6,13.8,3.3,16,6.8c1.2,1.9.4,6.6.1,9.3-.4,4.6,1.3,10.1-6.1,11.7ZM978,1819.7c2.9-.6,1.9-8.5,2.1-16.5l-10.8-4.4-6.9,6.1c-1.4.9-5.5,2.9-5,4.4l2,6.1c.7,2.2,2,7,4,7.4l14.8-3.1Z"/>
  <path class="st1" d="M128.1,372.8c6.9-4.9,11-15.2,12.1-24.1.8-6.7-5.3-11.6-11.2-12.9l-51.4-11.3c-2.6-.6-8.1.3-10.7,1.5,0,3.4,1.6,8,3.8,10.7l33,40c3.2,3.9,9.3,5.4,13.6,4.5l7.4-1.5c-4.2,5.7-10.7,6-17.5,3.6,1.9,8.6-1.4,15.1-8.6,19.2-15.1,8.5-38.3,15.3-45.7.9-8,14.6-30.7,7.1-46-2.5l-4.5-6.6v-11.4c0,0,5.1-4.8,5.1-4.8l30.2-42.7c1.2-1.7,1.9-5.7,2.4-8.3l-13.6,4.3c-.5.2-2.1-1.8-1.6-2.1l3.4-1.7c2.9-1.5,6.8-3,9.2-3.4s1,.1,1.2.1l3.7.5c1.2.2,1,3.7.7,6.1l5.1-1.1c1.5-.3,3.7,3.4,4.6,4.6l4-4.6c1.1-1.2,5.9,1.1,7.1,1.6l.5-6.9c.1-1.4,3.3-2,5.8-2.9l-4.7-3.5c-1.1-.8.9-5.2,1-5.6l-5.3-7c-.5.3-4.8,1.7-5.3.6l-2.5-4.8-3.5,5c-.9,1.3-5-.5-5.8-1.1l-.8,1.2-.5,5.8c-.1,1.4-4.1,1.3-5.1,1.3v-2.6c.8-.4,2.9-1.3,2.7-2.3l-.9-5L2.2,259v-19.7c14.4-11.3,41.2-20.8,50.9-5.3,6.5-13.4,26.7-8.5,42.1-.7,5.1,2.6,7.3,8.4,7.7,13.9,6.1-1.3,12.5-1,17.1,2.7,10.4,8.5,19.4,20.6,12.5,31.7,5.4.7,11.6,3.5,13.8,9.2,6.6,17.1,8.8,40.7-9,45.3,16.2,12.4-5.7,41.3-8.1,38.5l-1.1-1.8ZM42,301.3c1,1.3,6,2.3,6.6,1.1l2.5-4.6v-55.9c-.1-8.1-6.3-14.1-14.9-13.1s-19.5,4.3-27.7,9.8-6.6,13.7-2,19.4l35.5,43.5ZM67.9,295l29.7-43.6c3.7-5.4,1.2-13-4.7-15.9-7.7-3.8-16.1-6.1-24.7-7-6.6-.6-13,3.7-13.4,10.3-1,18.6-.9,36.5-.3,55.3,0,2.5,1.3,5.7,2.6,9.3,4.7-1.8,7.9-4.1,10.9-8.4ZM125.4,283c5.6-2.5,8-8.9,5.7-14.1s-8.7-13.4-15.1-17.7-13.3-1.4-17,4.1l-29.1,42.3c-2.2,3.2-3.5,6.5-3.4,11.3l58.9-26ZM131.9,333c8.1,1.8,14.6-4.9,15.4-11.2,1.2-10.3-.2-19.9-3.9-29.5-2.2-5.8-9.5-9.4-15.7-6.6l-49,21.6c-4.4,1.9-7.8,4.6-10.5,8.9,3.7,2.5,7.7,4.6,11.3,5.4l52.4,11.5ZM41.7,305l1.5-.8-1.5.8ZM39.2,408.6c7.4.4,12-5.6,12-11.3v-52.8c0-4.4-1.4-8.1-3.9-12.6-6.1,4-8.7,7.3-12.1,12.3l-27.7,39.4c-4.1,5.9-2.2,13.6,4,16.9,8.1,4.4,17.4,7.6,27.6,8.1ZM99.1,398.2c7.1-4.6,5.9-13.5,2.1-19.3l-36-43.4c-2-1-6.5-3.6-7.5-2.2l-3.5,5.3v56.9c0,8,6.2,14.2,15.5,13.2,9.8-1.1,20.6-4.8,29.3-10.4Z"/>
  <path class="st5" d="M62.5,1505.3l-1.1,10.1-4.1,16.7,13.5-1.1c4.6-.4,10.7,3.2,15.1,5.2s5.3,4.4,5.8,6.4c-.8.1-1.9.8-2.6,1.2-8,4.4-15.7,5.1-26,6.1,2.2,2.1,4.6,2.4,7.4,2.8,8.9,1.1,13,9.4,11.6,17.2-1.2,6.6-7.1,11.8-15,13.1-.7,4.2-1.9,9.3-3.4,11.8s-2.1,2.1-2.8,2.8c-5,4.2-15.2,5.7-20.2-.1-4.5,11.8-12.2,14.2-23.6,12.2-4.7,3.9-9.6,6.4-14.8,6.5v-2.5c3,.3,11.7-2.6,11.7-6l-3.1-14.2-8.5,1.7v-2.4c4.3-1,9.9-3.7,12.7-5.8l-7.5-10.9-5.3-.7v-2.9s5.4-.2,5.4-.2c1.2-7.2,4.7-11.3,11.3-14.9-.8-2.2-3-7.7-5.1-8.6-2.8-1.2-8.7,0-11.4.6v-8.4c.3,4.5,10.4,7.5,12.3,3.2,2.7-6.1,5.9-10.3,11.7-13.6-1.5-5.5-7.3-9.2-13.3-8.2s-8.1,4.2-10.8,8v-5c3.8-3,8.5-5.6,13.1-5.5,12.1.2,11.6,11.7,17,10.5l-7.5-19.1-1.2-6.9c4.1-1.2,6.9-1.1,10.1.7,11.7,6.8,17.3,17.3,16.4,29.5,8.1-9.2,10.4-17.9,8-29.4h4.4ZM47.3,1541.3c.3-8.4-.4-13.8-1.5-20.3-3.9-6.5-8.7-11.4-16-15.3-3.5,18.9,8.2,23.3,17.5,35.6ZM42.9,1544.7c0-8.5-6.4-13.1-14.1-11.6-4.6.9-8.9,4.9-10.2,8.5-1.6,4.5-1.2,10.1,2.4,13.4,4.1,3.7,10.4,3.9,14.6,1.6s7.1-6.9,7.2-11.9ZM87.2,1541.1c-11.7-9.3-25.5-10.3-37-.7,11.1,6.9,25.9,9.1,37,.7ZM72.7,1578.1c5.8-2.9,7.4-8.3,6.7-14.5-.6-5.4-9.2-10.3-13.1-8.3l-4.8,5c.2-4-.6-8.5-2.9-12.1s-9.7-5.2-11.8-2.7c-2.8,5.4-5.9,10.2-9.6,14.8-1,2.6,2.6,8.3,5.2,9.1s9.2.5,13,0c.6,3.7,2.1,9.6,5.4,10.4s8.4,0,11.8-1.7ZM31.8,1562.2c-7.5-5.1-16.2-1.9-19.7,4-3.6,6-2.3,14.2,4.8,17.5,6.2,2.9,12.7-.3,16.3-5.3,2.9-4.1,4-12.5-1.4-16.1ZM42.1,1591.6c9.9-1.7,13.8-11.4,10.9-18.7-5.1,0-10.6-.9-13.7-2.2-2.1,5.1-4.7,9.5-7.7,14.4s5.8,7.3,10.6,6.4ZM63.4,1583.7c-.9-1.1-5.7-3.3-6.3-3.5-2.5,8.2-8.2,12.9-16.4,14.2,5.2,5.9,11.2,4.9,16.4,2.8,4.6-1.8,9.3-9.9,6.3-13.5ZM36.5,1594l-8.6-6.5c-1.9-.8-7.4-.5-9.8.1-5.3,4.4-5.8,13.6,0,17.9s10.3,2.4,14.7-.5c2.9-1.9,6.7-8.9,3.8-11.1Z"/>
  <path class="st5" d="M33,1405.7c1.8-.3,5.6.2,7.2.6l-15.5,4.7c-6.9,4.4-8.7,11.6-4.3,17.8l25.7,37.1,11.3-49.4c.9-3.8-3-8.1-6.6-8.4l-5.1-1.8,1.5-.3,3.4-.5c4.1.6,8,3.7,9.7,8.4,12-7.2,25.2.5,35.8,11.3s3.8,10.1,1.8,14.3c17.7,2.6,20.9,26.6,15,42.9,2.2.9,6.9,1.7,7.1.3l.5-4.8h2.7s-.8,7.2-.8,7.2l6.7.8c1.4-14.8,2.3-30-3.7-43.1l1.7-1.1,5.4,14.2c.6,1.5.9,4.9.8,6.6l-2.6,28.7c-2.9-2.1-6.9-3.7-10.2-4.2l-3-.5-19.3-4.4-18.3-4.1-36.4-7.5-14.2-3.7-3-.6-23.8-5.3v-2.8s38.1,8.2,38.1,8.2l1.4-1.6-27.1-39.8-12.4-1.4v-2.7s13.1,1.3,13.1,1.3c-.3-9.1,9.8-15,17.8-16.3ZM95.4,1438.3c5.6-10.9-12.4-23.5-24.3-25.2s-10.8,2.2-11.9,7.3l-10.2,45.6,46.4-27.6ZM110.5,1481.5c4.3-12.8,2.6-22.1-1.9-32.4-2-4-9.7-9.4-14.7-6.5l-42.4,25.2,59,13.6ZM41.1,1466.5l1.6-.8-1.6.8Z"/>
  <path class="st5" d="M2.3,410.1v-3.8c39.8,21.7,89.3,15.7,122.7-15.1,38.4-35.4,43-92.6,11.3-133.1-31.2-39.9-88.5-51.6-134.1-27.2v-3.7c33-16.4,72.6-16.6,106,2.6,29.2,16.7,50.2,47.1,52.1,82.3,2.1,37.8-16.4,73-47.7,92.9-33.7,21.3-75,22.9-110.3,5.1Z"/>
  <path class="st0" d="M51.8,521.1c13.9,18.9,12.2,44.9-4.4,61.8-11.1,11.3-27.9,15.8-43.4,13.6l-1.8-.5v-2.8c18.4,3.6,37.3-3.9,47.5-18.6s10.8-35.2,0-50.5c-10.4-14.9-29.1-22.3-47.6-18.7v-3.4c19.2-2.7,38.3,3.7,49.6,19.1Z"/>
  <path class="st0" d="M123.1,1477.6h-2.7c4.8-43.8-33.7-81.2-79.1-77.8l-8.5,1.1c-10.9,1.4-20.9,6.5-30.6,11.9v-2.9c25.3-16,57.1-17.9,83.9-2.5,24.7,14.2,40.2,41.5,37,70.1Z"/>
  <path class="st0" d="M37.3,310.8v2.6c0,0,3.8,5.2,3.8,5.2.9,1.3-1.9,4.7-2.5,5.5-.2,0-1-.2-1.2-.1.9-4.3-1.1-8.5-6.5-9.8l-28.7-6.3v-3.5c0,0,26.2,5.8,26.2,5.8l9,.7Z"/>
  <path class="st1" d="M2.3,340.5v-1.9c0,0,0,1.9,0,1.9Z"/>
  <path class="st5" d="M997.1,1434.6l.9,2.4c-11.1,1-20.4,15.9-19,21.8.5,2.1,4.7,4.8,7.2,5l23.1,1.6,1.1,2.5-9.3-.7-23.3-.6c-6.9,9.2-4.9,19.9,2.8,28.7-1.4-.2-4.3-1.4-5.1-2.6-6.3-9.3-6.8-24.2,4.6-29-9.8-7.3,4.1-26.8,17-29Z"/>
  <path class="st1" d="M1019.5,1414.5l.4,2c-12.7,3-22.7,9.4-34.3,17.5-.6-3.5,1.7-5.4,4.1-6.8l7.9-4.5c6.7-3.9,14.6-6.2,21.9-8.3Z"/>
  <path class="st0" d="M990.7,1508.5c-1.9-2.4-3.6-6-4.3-8.9l6.8-1.5,18.3-11.2c-5.1,7.6-14.4,11.4-22,14.4l1.1,7.2Z"/>
  <path class="st1" d="M1026.7,47.5c-.5.8-2.1,1.8-2.7,2,.2,2,1.4,3.4,3.1,3.3-5.7,1.4-10,9.2-14.3,6.8l8.4-5.7c1.3-.8,1.5-4.3,1.2-5.8l4.4-.7Z"/>
  <path class="st4" d="M1070.7,1429.8c.3,3.5.4,3.7,0,.6-.1-1.5-.2-2,0-.6Z"/>
  <polygon class="st0" points="126.7 1438.6 127 1441.5 125.4 1442.6 122.7 1436.9 126.7 1438.6"/>
  <polygon class="st5" points="125.4 1434.3 126.7 1438.6 122.7 1436.9 121.3 1434.3 125.4 1434.3"/>
  <path class="st1" d="M1017.3,420c-4.1,5.2-11,4-15.2,1.5-5.1-3-8.1-9.1-4.8-14.7,3.4-5.8,11.2-5.7,16.2-2.7,5.1,3.1,8.3,10.4,3.8,16ZM1015.8,416.6c1.7-4.1-1.6-8.9-4.8-10.5s-8.5-1.3-10.1.9c-3.6,4.6-1.1,9.5,2.7,11.9s9.9,3.5,12.3-2.3Z"/>
  <path class="st5" d="M949.1,452.8l4.3-7.7c1.1-1.9-2.1-7.5-4.2-8.4s-3.8,1.4-6.2,2.8l.4-4.2c.1-1.4,5-2.2,6.4-1.7,3.6,1.4,6.4,5.9,6.7,9.1.5,5-.2,10.6-7.3,10.1Z"/>
  <path class="st0" d="M1050.6,485.9c-.3-2.2-8.5-2.5-12.8,1.9-1.2,1.2.2,4.8,1.3,7l-4.4-1.8c-1.3-.5-.8-4.6,0-6,2.8-4.8,11.4-7.6,16.9-4.2,1.1.7,2.7,3.2,2.9,4.5s-2.5,3.7-3.2,3.6l-.7-5.1Z"/>
  <path class="st0" d="M976.6,522.6l1.5-5.6c.7-2.5-8.3-6.3-9.1-4.3l-2,4.9c-1.8-.8-2.3-6.4-.4-7.3,6.2-3,13.1,1.1,14.9,6,.4,1,.3,4.8-.6,5.1l-4.2,1.3Z"/>
  <path class="st0" d="M30.2,539.8l-5.4,4.5c-1.2,1-5-.9-5.6-2.4-2.9-7-9.7-2.9-11.6-7.8s2.4-4.2,3.5-15.2c.4-3.6,6.8-3.4,9.2-1.3,3.9,3.3,7.5-.4,12.2,1.5s1.7,5.8,2.3,7.9,3.9,5.4,3.1,7.1-5,3.6-7.7,5.8ZM28.1,535.7c3.5-.7,6.5-2.2,6.2-3.4-2.2-2.4-3.8-3.5-3.8-4.8v-5.9c-10.5,3.7-14.5-4.8-15.3-2.8-2.2,6,1.7,7.6-3.1,11s-2.4,2.9-1.7,3.1l2.5.9c4.5,1.5,7.1,3.3,10.1,8l4.9-6.1Z"/>
  <path class="st1" d="M11.8,338.1l-3.5.9c-.6.1-1.6-.4-2.1-.6-.8-.4,2-2.2,2.5-2.2l2.7-.7c.6-.1,1.6.1,2.2.2s-1.3,2.2-1.8,2.4Z"/>
  <ellipse class="st1" cx="20.4" cy="332.4" rx="1.6" ry="1.5"/>
  <path class="st1" d="M1010.3,59.8l1.1,2.7c.2.9-1.7,1.7-2.8,2.2l-9.3,5-5,1.2,16-11.2Z"/>
  <path class="st5" d="M997.8,55l-.6,4.9-8.4,3.6c-17.3,7.4-29.5,20.3-43.1,34.6,3.4-13.3,17.1-19.3,26.5-29.9-16.9,5.5-34,8.5-49.6,15.5l-36.6,26.4-2.8,1.4c-.3.2-.5-1.1-.7-2l29.7-23.1c-19.6,1.9-35.2,11.9-55.2,11.3l84.8-24.3-49.9-11.6c16.7-4.5,49.9,11.3,58.8,8.7l40.1-11.9c-16.1-3.6-33.2-3.7-43.8-16.2,17.4,7.4,32.8,13.6,50.8,12.6Z"/>
  <path class="st1" d="M997.3,59.9l.6-4.9c1.4,0,4,.7,6.3,1.6l-6.9,3.3Z"/>
  <path class="st5" d="M1022.3,48.2c.3,1.6,0,5-1.2,5.8v-1.9s-1.5.5-1.5.5h-1.4c0,0,0-2.8,0-2.8l4.1-1.6Z"/>
  <polygon class="st1" points="1018.3 52.5 1013.8 52.1 1018.3 49.8 1018.3 52.5"/>
  <path class="st1" d="M1021.1,52.1l-1.5.5,1.5-.5Z"/>
  <path class="st0" d="M1010.4,1674.4c-5.2,2-7.8,8.3-10.9,6.2l-5-3.4-8.7-2.2,2.3-8.7,2.5-8c9.5,0,16.3-5.3,17.8-2.9,2.5,4.3,1,6.6,5.7,12.4.7.8,2.1,4.3,1.1,4.7l-4.7,1.8ZM1000.9,1676.5c3.4-3,7-5,10.1-6.1l-5.2-11.7-12.5,3.1c-.6,2.6-2.6,8.2-4,10l11.5,4.7Z"/>
  <path class="st0" d="M1025.9,1702.1c6.5-9.4,9.8-19,10.2-32.1,4.1,10.4,2.2,25.6-10.2,32.1Z"/>
  <path class="st5" d="M150.1,502.5c-2,.4-5,3.9-6.9,3.8s-4.5-3.4-5.3-6c-1.3-4.5-5.8-3.3-8.9-8.1s1-3.6,2-4.4c6.3-5.1,2.6-10.6,7.1-11.8,1.6-.4,5.2.7,6.5,1.7,5.7,4.8,7.4,2.7,12.1,5.3s-2,5.6,1.5,12.8,0,5-1.3,5.3l-6.8,1.4ZM155.8,497.7c-3.4-5.5-3.2-8.4-1-13.2-10.9,1.4-15.1-8.7-15.8-5.1l-.6,3.4c-.3,1.6-.7,4.6-1.7,5.2l-5.1,3.2,7.8,4.3,3.7,7.6c5-3.3,7.7-4,12.8-5.4Z"/>
  <path class="st0" d="M91.1,503.2c.8-.3-.6,24.1,26.6,35-17.2,0-28.7-17.8-29-33.9l2.4-1.1Z"/>
  <path class="st0" d="M126.8,610.6l-.8,7c-.1.9-9.2,5.2-13.5,5.9s-3.1-3.7-3.6-5.8l-3.6-3.1c-1-.9-.7-4.4.3-5.3,7-6,4.9-10.6,7.1-10.7,6-.2,7,3.9,14.6,4.2.5.6,0,5.2-.4,7.9ZM122.1,615.4l2.6-9.9c-2.1-.2-5.8-.2-6.8-1.2l-3.7-3.8c-.8,2.9-.9,6.3-2.1,7.3l-4.2,3.5,6.2,9,7.9-4.8Z"/>
  <path class="st0" d="M90.6,579.4c-15,7-16,20.1-13.1,35.1-10.5-12.9-2.9-29.9,10.4-37.6l2.7,2.5Z"/>
  <path class="st0" d="M893.4,1726.4c-8.7-3.3-12.3.9-17.3-2.2s-.3-4.8,0-6.3l.8-9,13.3-3c2-1.5,5-3.4,6.8-4s5,3.5,6.8,4.5l6.9,3.8c1.6.9,0,5.7-1.5,6.6-8.9,5.1-7.7,12.6-15.7,9.5ZM896.8,1723.1l11.2-10.5c-4.1-1.4-8.3-3.7-10.9-7-4.6,4.2-10.5,6-17.8,5.8,1,2,3,4.5,2.4,5.7l-2.3,4.5c5.9,0,12.7.8,17.4,1.6Z"/>
  <path class="st0" d="M903.2,1595.8c-.9,2.8-7.4,1.5-10.1,0l-5.2-2.9c-1.4-.8,1.6-5.3,1.9-6.8-.2-3.7,2.3-8.4,6.9-11l7.4-4.3,8,2.7c4.2,2.9,2.5,9.5-2.4,11.9s-4.8,5.4-6.3,10.5ZM900.1,1594.7c2-7.7,3.2-9.5,8.5-12.3l1.9-5-6.6-2.4-10.1,6.4c.4,4.1.1,5.8-1.9,9.3l8.1,4Z"/>
  <path class="st3" d="M125.4,1434.3h-4.2c-15.7-28.9-47.8-46.7-82.8-43,0,0-24.3,2.1-37.3,14.1l-1.1-2.3c13.2-12.9,37.6-15,37.6-15h6.6c0,.1,7.1.2,7.1.2,18.7.3,37.5,7.6,51.7,19.3,6.5,5.3,11.7,11.8,17.6,19.2l1.9-.9c-.3,3,.8,6.2,3,8.4Z"/>
  <ellipse class="st2" cx="339.3" cy="1793.4" rx="38.4" ry="36.9"/>
</svg>